<svg xmlns="http://www.w3.org/2000/svg" id="Layer_1" data-name="Layer 1" viewBox="0 0 128 128" width="300" height="300" version="1.1" xmlns:xlink="http://www.w3.org/1999/xlink" xmlns:svgjs="http://svgjs.dev/svgjs"><g width="100%" height="100%" transform="matrix(1,0,0,1,0,0)"><title/><path d="M64,24.99976a7,7,0,1,0,7,7A7.00849,7.00849,0,0,0,64,24.99976Zm0,10a3,3,0,1,1,3-3A3.00328,3.00328,0,0,1,64,34.99976Z" fill="#ffffff" fill-opacity="1" data-original-color="#000000ff" stroke="none" stroke-opacity="1"/><path d="M69.89453,56.21069a1.99742,1.99742,0,0,0-2.68359.89453L64,63.52808l-3.21094-6.42285a2.00023,2.00023,0,0,0-3.57812,1.78906l5,10a2.00042,2.00042,0,0,0,3.57813,0l5-10A1.99993,1.99993,0,0,0,69.89453,56.21069Z" fill="#ffffff" fill-opacity="1" data-original-color="#000000ff" stroke="none" stroke-opacity="1"/><path d="M99,89.99976a16,16,0,1,0-16-16A16.01833,16.01833,0,0,0,99,89.99976Zm2-27.8194a12.01068,12.01068,0,0,1,9.8194,9.8194H101Zm-4,0v11.8194a2.0001,2.0001,0,0,0,2,2h11.8194A11.99308,11.99308,0,1,1,97,62.18036Z" fill="#ffffff" fill-opacity="1" data-original-color="#000000ff" stroke="none" stroke-opacity="1"/><path d="M77,82.99976H68a2,2,0,0,0,0,4h9a2,2,0,0,0,0-4Z" fill="#ffffff" fill-opacity="1" data-original-color="#000000ff" stroke="none" stroke-opacity="1"/><path d="M77,74.99976H68a2,2,0,0,0,0,4h9a2,2,0,0,0,0-4Z" fill="#ffffff" fill-opacity="1" data-original-color="#000000ff" stroke="none" stroke-opacity="1"/><path d="M77,66.99976H72a2,2,0,0,0,0,4h5a2,2,0,0,0,0-4Z" fill="#ffffff" fill-opacity="1" data-original-color="#000000ff" stroke="none" stroke-opacity="1"/><circle cx="12" cy="55.99976" r="2" fill="#ffffff" fill-opacity="1" data-original-color="#000000ff" stroke="none" stroke-opacity="1"/><circle cx="20" cy="55.99976" r="2" fill="#ffffff" fill-opacity="1" data-original-color="#000000ff" stroke="none" stroke-opacity="1"/><circle cx="15" cy="31.99976" r="2" fill="#ffffff" fill-opacity="1" data-original-color="#000000ff" stroke="none" stroke-opacity="1"/><circle cx="23" cy="31.99976" r="2" fill="#ffffff" fill-opacity="1" data-original-color="#000000ff" stroke="none" stroke-opacity="1"/><circle cx="118" cy="15.99976" r="2" fill="#ffffff" fill-opacity="1" data-original-color="#000000ff" stroke="none" stroke-opacity="1"/><circle cx="110" cy="15.99976" r="2" fill="#ffffff" fill-opacity="1" data-original-color="#000000ff" stroke="none" stroke-opacity="1"/><path d="M122,5.99976H75.17285c.87384,1.26514,1.7229,2.60138,2.52911,4H122a2.00261,2.00261,0,0,1,2,2v10H102a2,2,0,0,0,0,4h22v18a2.00261,2.00261,0,0,1-2,2H89.84735a18.35,18.35,0,0,1,.12921,2.12012c.00183.6759.00354,1.29138.00513,1.87988H122a6.00656,6.00656,0,0,0,6-6v-32A6.00656,6.00656,0,0,0,122,5.99976Z" fill="#ffffff" fill-opacity="1" data-original-color="#000000ff" stroke="none" stroke-opacity="1"/><path d="M45.259,21.99976H11a6.00656,6.00656,0,0,0-6,6v14.4613a9.9599,9.9599,0,0,1,3-.4613H9v-14a2.00261,2.00261,0,0,1,2-2H44.41016A40.46028,40.46028,0,0,1,45.259,21.99976Z" fill="#ffffff" fill-opacity="1" data-original-color="#000000ff" stroke="none" stroke-opacity="1"/><path d="M16.64722,101.99976H10a6.01017,6.01017,0,0,1-5.65723-4h9.98071a27.87332,27.87332,0,0,1-1.53253-4H2a2.0001,2.0001,0,0,0-2,2,10.01177,10.01177,0,0,0,10,10H20.02985c-.06958-.06818-.14221-.13214-.21118-.20111A28.02281,28.02281,0,0,1,16.64722,101.99976Z" fill="#ffffff" fill-opacity="1" data-original-color="#000000ff" stroke="none" stroke-opacity="1"/><path d="M126,93.99976h-3V53.949c-.329.03284-.66248.05072-1,.05072h-3v40H66.43134a27.87927,27.87927,0,0,1-1.53033,4h58.75623a6.01017,6.01017,0,0,1-5.65723,4H71.34229l4,4H118a10.01177,10.01177,0,0,0,10-10A2.0001,2.0001,0,0,0,126,93.99976Z" fill="#ffffff" fill-opacity="1" data-original-color="#000000ff" stroke="none" stroke-opacity="1"/><path d="M2,83.99976a6.00656,6.00656,0,0,0,6,6h3.91718a28.22937,28.22937,0,0,1-.28516-4H8a2.00261,2.00261,0,0,1-2-2v-18H20.03027a28.17325,28.17325,0,0,1,5.14789-4H6v-10a2.00261,2.00261,0,0,1,2-2H38.01831c.00159-.58881.0033-1.20459.00513-1.88086a18.34867,18.34867,0,0,1,.12909-2.11914H8a6.00656,6.00656,0,0,0-6,6Z" fill="#ffffff" fill-opacity="1" data-original-color="#000000ff" stroke="none" stroke-opacity="1"/><path d="M65.38379.55542a2.00215,2.00215,0,0,0-2.76758,0c-.21985.2113-17.455,17.041-14.27844,35.96674a14.2604,14.2604,0,0,0-6.31433,11.60748C42,56.68335,42,57.99976,42,57.99976a1.99949,1.99949,0,0,0,3.04785,1.70313l12.51758-7.70312H70.43457l12.51758,7.70313A1.99952,1.99952,0,0,0,86,57.99976s0-1.31641-.02344-9.87012a14.2604,14.2604,0,0,0-6.31433-11.60748C82.83875,17.59637,65.60364.76672,65.38379.55542ZM64,4.87476a55.75182,55.75182,0,0,1,5.73376,7.43933A20.2879,20.2879,0,0,1,64,12.99976a20.2879,20.2879,0,0,1-5.73376-.68567A55.75182,55.75182,0,0,1,64,4.87476Zm-17.99316,49.541c.00391-1.45508.00879-3.47656.0166-6.27441a9.88865,9.88865,0,0,1,3.39081-7.33746,30.98088,30.98088,0,0,0,4.62042,8.67255Zm24.05078-6.416H57.94238c-9.219-11.48279-6.34454-23.51929-1.727-32.19025,2.16455.98828,5.463,1.19025,7.78461,1.19025s5.62006-.202,7.78461-1.19025C76.40216,24.48047,79.27655,36.517,70.05762,47.99976Zm11.91895.1416c.00781,2.79785.0127,4.81934.0166,6.27441l-8.02783-4.93933A30.99007,30.99007,0,0,0,78.58,40.82172,9.89256,9.89256,0,0,1,81.97656,48.14136Z" fill="#ffffff" fill-opacity="1" data-original-color="#000000ff" stroke="none" stroke-opacity="1"/><path d="M67.77081,104.08484A7.11875,7.11875,0,0,0,59.32,102.87347l-1.38892-1.38892a23.83383,23.83383,0,1,0-2.81866,2.83759l1.38245,1.38245a7.1279,7.1279,0,0,0,1.20825,8.44794l11.76221,11.76215A7.11891,7.11891,0,0,0,79.533,115.847Zm-14.01062-3.94293a20,20,0,1,1,0-28.2843A19.93753,19.93753,0,0,1,53.76019,100.14191Zm22.94434,22.94434a3.11885,3.11885,0,0,1-4.41077,0L60.53156,111.3241a3.11893,3.11893,0,1,1,4.41083-4.41083l11.76215,11.76215A3.11892,3.11892,0,0,1,76.70453,123.08624Z" fill="#ffffff" fill-opacity="1" data-original-color="#000000ff" stroke="none" stroke-opacity="1"/><path d="M28.3042,97.31421c.24231.24225.50116.46094.75586.68555H50.17584c.2547-.22461.51355-.4433.7558-.68555a15.92457,15.92457,0,0,0,2.52313-3.31445H25.78125A15.92574,15.92574,0,0,0,28.3042,97.31421Z" fill="#ffffff" fill-opacity="1" data-original-color="#000000ff" stroke="none" stroke-opacity="1"/></g></svg>