<svg xmlns="http://www.w3.org/2000/svg" id="Layer_1" data-name="Layer 1" viewBox="0 0 128 128" width="300" height="300" version="1.1" xmlns:xlink="http://www.w3.org/1999/xlink" xmlns:svgjs="http://svgjs.dev/svgjs"><g width="100%" height="100%" transform="matrix(1,0,0,1,0,0)"><title/><path d="M70.94629,108H53a2,2,0,0,0,0,4H70.94629a2.0007,2.0007,0,1,1,0,4H60.81055a6.00025,6.00025,0,1,0,0,12h6.31934a2,2,0,0,0,0-4H60.81055a2.00073,2.00073,0,1,1,0-4H70.94629a6.00024,6.00024,0,1,0,0-12Z" fill="#ffffff" fill-opacity="1" data-original-color="#000000ff" stroke="none" stroke-opacity="1"/><path d="M124.59961.7998a2.07182,2.07182,0,0,0-3.19922,0l-3,4A1.99987,1.99987,0,0,0,121,7.73212V58a2,2,0,0,0,4,0V7.7193a1.99265,1.99265,0,0,0,2.59961-2.91949Z" fill="#ffffff" fill-opacity="1" data-original-color="#000000ff" stroke="none" stroke-opacity="1"/><path d="M112,40a2.0001,2.0001,0,0,0,2-2V17.7193a1.99265,1.99265,0,0,0,2.59961-2.91949l-3-4a2.07182,2.07182,0,0,0-3.19922,0l-3,4A1.9997,1.9997,0,0,0,110,17.73181V38A2.0001,2.0001,0,0,0,112,40Z" fill="#ffffff" fill-opacity="1" data-original-color="#000000ff" stroke="none" stroke-opacity="1"/><path d="M6.59961.7998a2.07182,2.07182,0,0,0-3.19922,0l-3,4A1.99983,1.99983,0,0,0,3,7.73206V58a2,2,0,0,0,4,0V7.7193A1.99265,1.99265,0,0,0,9.59961,4.7998Z" fill="#ffffff" fill-opacity="1" data-original-color="#000000ff" stroke="none" stroke-opacity="1"/><path d="M16,40a2.0001,2.0001,0,0,0,2-2V17.7193a1.99265,1.99265,0,0,0,2.59961-2.91949l-3-4a2.07182,2.07182,0,0,0-3.19922,0l-3,4A1.9997,1.9997,0,0,0,14,17.73181V38A2.0001,2.0001,0,0,0,16,40Z" fill="#ffffff" fill-opacity="1" data-original-color="#000000ff" stroke="none" stroke-opacity="1"/><path d="M38,50A26.04,26.04,0,0,0,58,75.29346v-4.132a22,22,0,1,1,12,0V74h3.99329A25.99888,25.99888,0,1,0,38,50Z" fill="#ffffff" fill-opacity="1" data-original-color="#000000ff" stroke="none" stroke-opacity="1"/><path d="M50,50A14,14,0,1,1,70,62.62994v4.31982a18,18,0,1,0-12,0V62.62994A14.004,14.004,0,0,1,50,50Z" fill="#ffffff" fill-opacity="1" data-original-color="#000000ff" stroke="none" stroke-opacity="1"/><path d="M64,44a5.97636,5.97636,0,0,1,5.80255,7.5A5.97183,5.97183,0,0,1,70,53v4.9809a10,10,0,1,0-12,0V53a5.97183,5.97183,0,0,1,.19745-1.5A5.97636,5.97636,0,0,1,64,44Z" fill="#ffffff" fill-opacity="1" data-original-color="#000000ff" stroke="none" stroke-opacity="1"/><path d="M39.57227,22.51367A38.45245,38.45245,0,0,0,27,51.10986c0,5.61377,1.50781,11.37646,4.60938,17.6167.915,1.84229,1.95605,3.71582,3.18555,5.731.80566,1.31445,1.78613,2.79395,2.82422,4.35986,3.80188,5.73517,8.94623,13.51025,11.75745,22.61194A1.99425,1.99425,0,0,0,51,104.58984H77a1.99425,1.99425,0,0,0,1.62341-3.16052A58.20329,58.20329,0,0,1,81.05511,95H76.702c-.74231,1.79852-1.42163,3.66144-2.00348,5.58984h-21.397c-2.95605-9.79675-8.364-17.97125-12.34839-23.98242-1.01758-1.53564-1.97949-2.98633-2.74609-4.23633-1.166-1.91211-2.15234-3.686-3.01562-5.42432C32.37109,61.272,31,56.0918,31,51.10986A34.44875,34.44875,0,0,1,42.248,25.48633a1.99978,1.99978,0,1,0-2.67578-2.97266Z" fill="#ffffff" fill-opacity="1" data-original-color="#000000ff" stroke="none" stroke-opacity="1"/><path d="M88.42773,22.51367A1.99978,1.99978,0,1,0,85.752,25.48633,34.44875,34.44875,0,0,1,97,51.10986c0,4.98193-1.37109,10.16211-4.19141,15.8374-.86328,1.73779-1.84961,3.51172-3.01367,5.42041-.76855,1.25342-1.73047,2.7041-2.748,4.23975C85.77679,78.52362,84.36194,80.66168,82.928,83h4.7229c.94843-1.48706,1.87537-2.89355,2.72992-4.18262,1.03809-1.56592,2.01855-3.04541,2.82617-4.36328,1.22754-2.01172,2.26855-3.88525,3.18359-5.72705C99.49219,62.48633,101,56.72363,101,51.10986A38.45245,38.45245,0,0,0,88.42773,22.51367Z" fill="#ffffff" fill-opacity="1" data-original-color="#000000ff" stroke="none" stroke-opacity="1"/><path d="M76.915,80a2.0001,2.0001,0,0,0-2-2H66V53a2,2,0,0,0-4,0V80a2.0001,2.0001,0,0,0,2,2h8.915v7a2.0001,2.0001,0,0,0,2,2H112v27a2,2,0,0,0,4,0V89a2.0001,2.0001,0,0,0-2-2H76.915Z" fill="#ffffff" fill-opacity="1" data-original-color="#000000ff" stroke="none" stroke-opacity="1"/><path d="M.167,105.6665a2.00009,2.00009,0,0,0,2,2h18.5a2.0001,2.0001,0,0,0,2-2V87.5H33.5a2,2,0,0,0,0-4H20.667a2.00009,2.00009,0,0,0-2,2v18.1665H2.167A2.00009,2.00009,0,0,0,.167,105.6665Z" fill="#ffffff" fill-opacity="1" data-original-color="#000000ff" stroke="none" stroke-opacity="1"/><path d="M107.58594,72.41406a1.99927,1.99927,0,0,0,2.82813,0L112,70.82813l1.58594,1.58594a1.99979,1.99979,0,0,0,2.82813-2.82812L114.82813,68l1.58594-1.58594a1.99979,1.99979,0,0,0-2.82812-2.82812L112,65.17188l-1.58594-1.58594a1.99979,1.99979,0,0,0-2.82812,2.82813L109.17188,68l-1.58594,1.58594A1.99927,1.99927,0,0,0,107.58594,72.41406Z" fill="#ffffff" fill-opacity="1" data-original-color="#000000ff" stroke="none" stroke-opacity="1"/><path d="M59.58594,9.41406a1.99927,1.99927,0,0,0,2.82813,0L64,7.82813l1.58594,1.58594a1.99979,1.99979,0,0,0,2.82813-2.82812L66.82813,5l1.58594-1.58594A1.99979,1.99979,0,0,0,65.58594.58594L64,2.17188,62.41406.58594a1.99979,1.99979,0,0,0-2.82812,2.82813L61.17188,5,59.58594,6.58594A1.99927,1.99927,0,0,0,59.58594,9.41406Z" fill="#ffffff" fill-opacity="1" data-original-color="#000000ff" stroke="none" stroke-opacity="1"/><path d="M11.58594,72.41406a1.99927,1.99927,0,0,0,2.82813,0L16,70.82813l1.58594,1.58594a1.99979,1.99979,0,0,0,2.82813-2.82812L18.82813,68l1.58594-1.58594a1.99979,1.99979,0,0,0-2.82812-2.82812L16,65.17188l-1.58594-1.58594a1.99979,1.99979,0,0,0-2.82812,2.82813L13.17188,68l-1.58594,1.58594A1.99927,1.99927,0,0,0,11.58594,72.41406Z" fill="#ffffff" fill-opacity="1" data-original-color="#000000ff" stroke="none" stroke-opacity="1"/></g></svg>