<svg xmlns="http://www.w3.org/2000/svg" id="Layer_1" data-name="Layer 1" viewBox="0 0 128 128" width="300" height="300" version="1.1" xmlns:xlink="http://www.w3.org/1999/xlink" xmlns:svgjs="http://svgjs.dev/svgjs"><g width="100%" height="100%" transform="matrix(1,0,0,1,0,0)"><title/><path d="M113.95215,23.38574c-6.91113-5.97363-9.02051-14.01953-9.66309-18.2832A5.95726,5.95726,0,0,0,98.35938,0H29.64063a5.95726,5.95726,0,0,0-5.92969,5.10156c-.64258,4.26465-2.752,12.31055-9.66309,18.2832A5.94222,5.94222,0,0,0,12,27.8916V33a6.99333,6.99333,0,0,0,12,4.88928,6.97751,6.97751,0,0,0,10,0,6.97751,6.97751,0,0,0,10,0,6.97751,6.97751,0,0,0,10,0,6.97751,6.97751,0,0,0,10,0,6.97751,6.97751,0,0,0,10,0,6.97751,6.97751,0,0,0,10,0,6.97751,6.97751,0,0,0,10,0,6.97751,6.97751,0,0,0,10,0A6.99333,6.99333,0,0,0,116,33V27.8916A5.93865,5.93865,0,0,0,113.95215,23.38574Zm-91.166,1.02539a2.01967,2.01967,0,0,0-.65186.88409A2.11858,2.11858,0,0,0,22,26v7a3,3,0,0,1-6,0V27.8916a1.94806,1.94806,0,0,1,.66309-1.48047C24.54883,19.59668,26.94141,10.50781,27.666,5.69629A1.98338,1.98338,0,0,1,29.64063,4h4.20685C33.36255,8.15515,31.32684,17.88538,22.78613,24.41113Zm10,0A2.04405,2.04405,0,0,0,32,26v7a3,3,0,0,1-6,0V26.95856C35.43982,19.25385,37.45618,8.43713,37.8833,4h5.96417C43.36255,8.15515,41.32684,17.88544,32.78613,24.41113Zm10,0A2.057,2.057,0,0,0,42,26v7a3,3,0,0,1-6,0V26.95856C45.43982,19.25385,47.45618,8.43713,47.8833,4h5.96417C53.36255,8.15515,51.32684,17.88544,42.78613,24.41113Zm10,0A2.08047,2.08047,0,0,0,52,26v7a3,3,0,0,1-6,0V26.95856C55.43982,19.25385,57.45618,8.43713,57.8833,4h5.96417C63.36255,8.15515,61.32684,17.88544,52.78613,24.41113ZM72,33a3,3,0,0,1-6,0V26a2,2,0,0,0-4,0v7a3,3,0,0,1-6,0V26.95856a31.37117,31.37117,0,0,0,8.0058-9.876A31.148,31.148,0,0,0,72,26.94177Zm10,0a3,3,0,0,1-6,0V26a2.05632,2.05632,0,0,0-.78516-1.58887,27.76442,27.76442,0,0,1-9.07147-12.35907A36.684,36.684,0,0,0,67.8833,4h2.2334C70.54382,8.43713,72.56018,19.25385,82,26.95856Zm10,0a3,3,0,0,1-6,0V26a2.07459,2.07459,0,0,0-.78613-1.58887C76.67328,17.88556,74.6377,8.15594,74.15265,4H80.1167C80.54382,8.43713,82.56018,19.25385,92,26.95856Zm10,0a3,3,0,0,1-6,0V26a2.0553,2.0553,0,0,0-.78613-1.58887C86.67328,17.88556,84.6377,8.15594,84.15265,4H90.1167C90.54382,8.43713,92.56018,19.25385,102,26.95856Zm10,0a3,3,0,0,1-6,0V26a2.06189,2.06189,0,0,0-.78613-1.58887C96.67328,17.88556,94.6377,8.15594,94.15265,4h4.20673A1.98338,1.98338,0,0,1,100.334,5.69727c.72461,4.81055,3.11719,13.89941,11.00293,20.71484A1.94449,1.94449,0,0,1,112,27.8916Z" fill="#ffffff" fill-opacity="1" data-original-color="#000000ff" stroke="none" stroke-opacity="1"/><path d="M3,126a2,2,0,0,0,4,0v-6H121v6a2,2,0,0,0,4,0v-6a4.004,4.004,0,0,0-4-4h-5v-4a4.004,4.004,0,0,0-4-4H16a4.004,4.004,0,0,0-4,4v4H7a4.004,4.004,0,0,0-4,4Zm13-14h96v4H16Z" fill="#ffffff" fill-opacity="1" data-original-color="#000000ff" stroke="none" stroke-opacity="1"/><path d="M81.70508,51.65332l-3.30762,2.91211a1.99968,1.99968,0,1,0,2.64258,3.002l3.30762-2.91211a1.99968,1.99968,0,1,0-2.64258-3.002Z" fill="#ffffff" fill-opacity="1" data-original-color="#000000ff" stroke="none" stroke-opacity="1"/><path d="M82.28418,69.49707l4.30078.91309a1.96533,1.96533,0,0,0,.417.04395A1.99983,1.99983,0,0,0,87.415,66.498L83.11426,65.585a1.9996,1.9996,0,1,0-.83008,3.91211Z" fill="#ffffff" fill-opacity="1" data-original-color="#000000ff" stroke="none" stroke-opacity="1"/><path d="M82.668,63.48828a2.00011,2.00011,0,0,0-1.01562-3.86914l-1.90234.499a2.00011,2.00011,0,1,0,1.01563,3.86914Z" fill="#ffffff" fill-opacity="1" data-original-color="#000000ff" stroke="none" stroke-opacity="1"/><path d="M97,88h4a2,2,0,0,0,0-4H97a2,2,0,0,0,0,4Z" fill="#ffffff" fill-opacity="1" data-original-color="#000000ff" stroke="none" stroke-opacity="1"/><path d="M93,96h8a2,2,0,0,0,0-4H93a2,2,0,0,0,0,4Z" fill="#ffffff" fill-opacity="1" data-original-color="#000000ff" stroke="none" stroke-opacity="1"/><path d="M27,56h4a2,2,0,0,0,0-4H27a2,2,0,0,0,0,4Z" fill="#ffffff" fill-opacity="1" data-original-color="#000000ff" stroke="none" stroke-opacity="1"/><path d="M35,44H27a2,2,0,0,0,0,4h8a2,2,0,0,0,0-4Z" fill="#ffffff" fill-opacity="1" data-original-color="#000000ff" stroke="none" stroke-opacity="1"/><path d="M114.89551,80.66992a10.4694,10.4694,0,0,1,1.11133-.58594,11.47654,11.47654,0,0,1,1.26465-.39941,6.27329,6.27329,0,0,0,5.41309-5.41309,11.47654,11.47654,0,0,1,.39941-1.26465,10.46939,10.46939,0,0,1,.58594-1.11133A7.74864,7.74864,0,0,0,125,68a7.74864,7.74864,0,0,0-1.33008-3.89551,10.46939,10.46939,0,0,1-.58594-1.11133,11.47654,11.47654,0,0,1-.39941-1.26465,7.7667,7.7667,0,0,0-1.78516-3.62793,7.7667,7.7667,0,0,0-3.62793-1.78516,11.47654,11.47654,0,0,1-1.26465-.39941,10.4694,10.4694,0,0,1-1.11133-.58594,6.36958,6.36958,0,0,0-7.791,0,10.4694,10.4694,0,0,1-1.11133.58594,11.47654,11.47654,0,0,1-1.26465.39941,7.7667,7.7667,0,0,0-3.62793,1.78516,7.7667,7.7667,0,0,0-1.78516,3.62793,11.47653,11.47653,0,0,1-.39941,1.26465,10.4694,10.4694,0,0,1-.58594,1.11133A7.74864,7.74864,0,0,0,97,68a7.74864,7.74864,0,0,0,1.33008,3.89551,10.4694,10.4694,0,0,1,.58594,1.11133,11.47653,11.47653,0,0,1,.39941,1.26465,6.27329,6.27329,0,0,0,5.41309,5.41309,11.47654,11.47654,0,0,1,1.26465.39941,10.4694,10.4694,0,0,1,1.11133.58594,6.36958,6.36958,0,0,0,7.791,0Zm-7.36914-4.28125a14.50648,14.50648,0,0,0-1.73145-.55957,4.81405,4.81405,0,0,1-1.86621-.75781,4.81405,4.81405,0,0,1-.75781-1.86621,14.50647,14.50647,0,0,0-.55957-1.73145,13.726,13.726,0,0,0-.81348-1.57227A4.68641,4.68641,0,0,1,101,68a4.68641,4.68641,0,0,1,.79785-1.90137,13.726,13.726,0,0,0,.81348-1.57227,14.50647,14.50647,0,0,0,.55957-1.73145,4.81405,4.81405,0,0,1,.75781-1.86621,4.81405,4.81405,0,0,1,1.86621-.75781,14.50648,14.50648,0,0,0,1.73145-.55957,13.726,13.726,0,0,0,1.57227-.81348A4.68641,4.68641,0,0,1,111,58a4.68641,4.68641,0,0,1,1.90137.79785,13.726,13.726,0,0,0,1.57227.81348,14.50648,14.50648,0,0,0,1.73145.55957,4.81405,4.81405,0,0,1,1.86621.75781,4.81405,4.81405,0,0,1,.75781,1.86621,14.50647,14.50647,0,0,0,.55957,1.73145,13.726,13.726,0,0,0,.81348,1.57227A4.68641,4.68641,0,0,1,121,68a4.68641,4.68641,0,0,1-.79785,1.90137,13.726,13.726,0,0,0-.81348,1.57227,14.50647,14.50647,0,0,0-.55957,1.73145,4.81405,4.81405,0,0,1-.75781,1.86621,4.81405,4.81405,0,0,1-1.86621.75781,14.50648,14.50648,0,0,0-1.73145.55957,13.726,13.726,0,0,0-1.57227.81348A4.68641,4.68641,0,0,1,111,78a4.68641,4.68641,0,0,1-1.90137-.79785A13.726,13.726,0,0,0,107.52637,76.38867Z" fill="#ffffff" fill-opacity="1" data-original-color="#000000ff" stroke="none" stroke-opacity="1"/><path d="M117,68a6,6,0,1,0-6,6A6.00656,6.00656,0,0,0,117,68Zm-8,0a2,2,0,1,1,2,2A2.00261,2.00261,0,0,1,109,68Z" fill="#ffffff" fill-opacity="1" data-original-color="#000000ff" stroke="none" stroke-opacity="1"/><path d="M111,46a2,2,0,0,0-4,0v4.88165A9.8025,9.8025,0,0,1,111,50Z" fill="#ffffff" fill-opacity="1" data-original-color="#000000ff" stroke="none" stroke-opacity="1"/><path d="M21,68.28149V46a2,2,0,0,0-4,0V68.43524a5.82992,5.82992,0,0,1,4-.15375Z" fill="#ffffff" fill-opacity="1" data-original-color="#000000ff" stroke="none" stroke-opacity="1"/><path d="M23,104h82a6.00656,6.00656,0,0,0,6-6V86a9.80264,9.80264,0,0,1-4-.88159V98a2.00261,2.00261,0,0,1-2,2H23a2.00261,2.00261,0,0,1-2-2v-.49a5.69208,5.69208,0,0,1-4,.23346V98A6.00656,6.00656,0,0,0,23,104Z" fill="#ffffff" fill-opacity="1" data-original-color="#000000ff" stroke="none" stroke-opacity="1"/><path d="M18.68164,94a2.0001,2.0001,0,0,0,2-2v-.9137a5.36087,5.36087,0,0,0,3.13477-2.16345,4.97487,4.97487,0,0,0,.02637-5.376c-1.165-1.88281-3.1748-2.44336-4.79-2.89258-1.498-.418-2.22461-.67676-2.40918-1.23633-.14453-.44824.46973-.81641.71777-.91992a3.20888,3.20888,0,0,1,2.85547.32129,2,2,0,0,0,2.14063-3.37891,7.28834,7.28834,0,0,0-1.13965-.574V74a2,2,0,0,0-4,0v.41254a6.56144,6.56144,0,0,0-1.39746.3941,4.76647,4.76647,0,0,0-2.97949,5.85156c.874,2.66016,3.33887,3.34766,5.13867,3.84863,1.08984.30371,2.11914.59082,2.46387,1.14746a.997.997,0,0,1,.0459,1.04688c-.41016.61523-1.64258.75977-2.583.58887a2.408,2.408,0,0,1-1.00781-.47656,2,2,0,1,0-2.46484,3.15039,6.457,6.457,0,0,0,2.248,1.1333V92A2.0001,2.0001,0,0,0,18.68164,94Z" fill="#ffffff" fill-opacity="1" data-original-color="#000000ff" stroke="none" stroke-opacity="1"/><path d="M76.4873,63.0498a7.8802,7.8802,0,0,0-8.63263-5.86l-1.99823-7.69269A2.0001,2.0001,0,0,0,62.79,48.35059L40.21,63.833l-6.77832,1.7793A5.96124,5.96124,0,0,0,29.19336,72.873l2.249,8.66211a1.18212,1.18212,0,0,1,.11719.4502l2.4834,9.5625a5.9332,5.9332,0,1,0,11.47461-3.02344l-2.17639-8.041,1.12659-.2959,27.22559,2.40332a2,2,0,0,0,2.11133-2.49512l-2.00043-7.70117A7.94352,7.94352,0,0,0,76.4873,63.0498ZM40.26855,91.93652a1.8916,1.8916,0,0,1-1.4541-.2002,1.941,1.941,0,0,1-.90039-1.19434L35.81519,82.46l3.657-.96045,2.1792,8.05023A1.9566,1.9566,0,0,1,40.26855,91.93652Zm-5.459-13.34766-1.74512-6.72168a1.956,1.956,0,0,1,1.38281-2.38574l5.175-1.35895,2.23755,8.61469Zm11.06824-2.292-2.53564-9.76245,12.31525-8.444L60.7265,77.6076Zm19.078,1.68408L59.165,55.6853l3.53613-2.42456L69.2207,78.35742Zm5.8222-9.537-1.90247-7.32416a3.85941,3.85941,0,0,1,1.92914.53259,3.89977,3.89977,0,0,1,1.81152,2.40137v.001A3.93551,3.93551,0,0,1,70.778,68.44391Z" fill="#ffffff" fill-opacity="1" data-original-color="#000000ff" stroke="none" stroke-opacity="1"/><circle cx="93" cy="50.01367" r="2" fill="#ffffff" fill-opacity="1" data-original-color="#000000ff" stroke="none" stroke-opacity="1"/><circle cx="101" cy="50.01367" r="2" fill="#ffffff" fill-opacity="1" data-original-color="#000000ff" stroke="none" stroke-opacity="1"/></g></svg>