<svg xmlns="http://www.w3.org/2000/svg" id="Layer_1" data-name="Layer 1" viewBox="0 0 128 128" width="300" height="300" version="1.1" xmlns:xlink="http://www.w3.org/1999/xlink" xmlns:svgjs="http://svgjs.dev/svgjs"><g width="100%" height="100%" transform="matrix(1,0,0,1,0,0)"><title/><path d="M91,78V54a6.00656,6.00656,0,0,0-6-6H43a6.00656,6.00656,0,0,0-6,6V78a6.00656,6.00656,0,0,0,6,6H85A6.00656,6.00656,0,0,0,91,78Zm-4,0a2.00229,2.00229,0,0,1-2,2H43a2.00229,2.00229,0,0,1-2-2V75.11487L58.34326,64.39648l14.50342,10.2373a1.99985,1.99985,0,0,0,2.30664-3.26758L72.226,69.29987l6.8009-4.86041L87,69.87811Zm0-12.96405-6.873-4.68829a1.99862,1.99862,0,0,0-2.29.02539l-9.07184,6.48389-9.19525-6.49072a1.99791,1.99791,0,0,0-2.20459-.06738L41,70.413V54a2.002,2.002,0,0,1,2-2H85a2.002,2.002,0,0,1,2,2Z" fill="#ffffff" fill-opacity="1" data-original-color="#000000ff" stroke="none" stroke-opacity="1"/><path d="M49,90a2.0001,2.0001,0,0,0-2-2H43a2,2,0,0,0,0,4h4A2.0001,2.0001,0,0,0,49,90Z" fill="#ffffff" fill-opacity="1" data-original-color="#000000ff" stroke="none" stroke-opacity="1"/><path d="M62,88a2,2,0,0,0,0,4h4a2,2,0,0,0,0-4Z" fill="#ffffff" fill-opacity="1" data-original-color="#000000ff" stroke="none" stroke-opacity="1"/><path d="M81,88a2,2,0,0,0,0,4h4a2,2,0,0,0,0-4Z" fill="#ffffff" fill-opacity="1" data-original-color="#000000ff" stroke="none" stroke-opacity="1"/><path d="M43,44a6,6,0,1,0-6-6A6.0068,6.0068,0,0,0,43,44Zm0-8a2,2,0,1,1-2,2A2,2,0,0,1,43,36Z" fill="#ffffff" fill-opacity="1" data-original-color="#000000ff" stroke="none" stroke-opacity="1"/><path d="M78.6665,40a2,2,0,0,0,0-4H54.3335a2,2,0,0,0,0,4Z" fill="#ffffff" fill-opacity="1" data-original-color="#000000ff" stroke="none" stroke-opacity="1"/><path d="M113,49h-6a2,2,0,0,0,0,4h6a2,2,0,0,0,0-4Z" fill="#ffffff" fill-opacity="1" data-original-color="#000000ff" stroke="none" stroke-opacity="1"/><path d="M113,57h-6a2,2,0,0,0,0,4h6a2,2,0,0,0,0-4Z" fill="#ffffff" fill-opacity="1" data-original-color="#000000ff" stroke="none" stroke-opacity="1"/><path d="M113,65h-6a2,2,0,0,0,0,4h6a2,2,0,0,0,0-4Z" fill="#ffffff" fill-opacity="1" data-original-color="#000000ff" stroke="none" stroke-opacity="1"/><path d="M113,73h-6a2,2,0,0,0,0,4h6a2,2,0,0,0,0-4Z" fill="#ffffff" fill-opacity="1" data-original-color="#000000ff" stroke="none" stroke-opacity="1"/><path d="M113,81h-6a2,2,0,0,0,0,4h6a2,2,0,0,0,0-4Z" fill="#ffffff" fill-opacity="1" data-original-color="#000000ff" stroke="none" stroke-opacity="1"/><path d="M16,49h6a2,2,0,0,0,0-4H16a2,2,0,0,0,0,4Z" fill="#ffffff" fill-opacity="1" data-original-color="#000000ff" stroke="none" stroke-opacity="1"/><path d="M16,57h6a2,2,0,0,0,0-4H16a2,2,0,0,0,0,4Z" fill="#ffffff" fill-opacity="1" data-original-color="#000000ff" stroke="none" stroke-opacity="1"/><path d="M16,65h6a2,2,0,0,0,0-4H16a2,2,0,0,0,0,4Z" fill="#ffffff" fill-opacity="1" data-original-color="#000000ff" stroke="none" stroke-opacity="1"/><path d="M16,73h6a2,2,0,0,0,0-4H16a2,2,0,0,0,0,4Z" fill="#ffffff" fill-opacity="1" data-original-color="#000000ff" stroke="none" stroke-opacity="1"/><path d="M16,81h6a2,2,0,0,0,0-4H16a2,2,0,0,0,0,4Z" fill="#ffffff" fill-opacity="1" data-original-color="#000000ff" stroke="none" stroke-opacity="1"/><path d="M111,22A16,16,0,1,0,95,38,16.01833,16.01833,0,0,0,111,22ZM95,34a12,12,0,1,1,12-12A12.01375,12.01375,0,0,1,95,34Z" fill="#ffffff" fill-opacity="1" data-original-color="#000000ff" stroke="none" stroke-opacity="1"/><path d="M100.7699,16.45a6.746,6.746,0,0,0-4.212-1.45,6.916,6.916,0,0,0-1.59558.187,6.98386,6.98386,0,0,0-1.56311-.17529,6.68047,6.68047,0,0,0-4.27008,1.50745A5.7283,5.7283,0,0,0,89.23,25.51147l3.20111,2.56537a4.21851,4.21851,0,0,0,5.32593-.04761l3.11377-2.58691a5.72825,5.72825,0,0,0-.101-8.99231Zm-2.4552,5.91565-3.11609,2.58887A.20881.20881,0,0,1,95.06635,25h-.00092a.21289.21289,0,0,1-.13281-.04449l-3.20117-2.56543a1.73263,1.73263,0,0,1-.04608-2.79419,2.6894,2.6894,0,0,1,1.71387-.58417,2.78564,2.78564,0,0,1,1.576.47113,2.841,2.841,0,0,1,3.29327.08856A1.73269,1.73269,0,0,1,98.3147,22.36566Z" fill="#ffffff" fill-opacity="1" data-original-color="#000000ff" stroke="none" stroke-opacity="1"/><path d="M7.07916,107.56244C7.03888,107.04523,7,106.5274,7,106a19.98671,19.98671,0,0,1,.204-2.69922A6.02763,6.02763,0,0,1,4.34277,100H7.92236a19.86593,19.86593,0,0,1,1.78369-4H9V30a2.002,2.002,0,0,1,2-2H29V86.10132a19.8487,19.8487,0,0,1,4,.821V28H75.92242a19.84878,19.84878,0,0,1-.82111-4H11a6.00656,6.00656,0,0,0-6,6V96H2a2.0001,2.0001,0,0,0-2,2A10.0163,10.0163,0,0,0,7.07916,107.56244Z" fill="#ffffff" fill-opacity="1" data-original-color="#000000ff" stroke="none" stroke-opacity="1"/><path d="M126,96h-3V30a6.00656,6.00656,0,0,0-6-6h-2.10132a19.84878,19.84878,0,0,1-.82111,4H117a2.002,2.002,0,0,1,2,2V96H44.29395a19.86593,19.86593,0,0,1,1.78369,4h77.57959A6.01017,6.01017,0,0,1,118,104H46.89868c.06567.65808.10132,1.32489.10132,2s-.03564,1.34192-.10132,2H118a10.01146,10.01146,0,0,0,10-10A2.0001,2.0001,0,0,0,126,96Z" fill="#ffffff" fill-opacity="1" data-original-color="#000000ff" stroke="none" stroke-opacity="1"/><path d="M27,122a16,16,0,1,0-16-16A16.01833,16.01833,0,0,0,27,122Zm0-28a12,12,0,1,1-12,12A12.01344,12.01344,0,0,1,27,94Z" fill="#ffffff" fill-opacity="1" data-original-color="#000000ff" stroke="none" stroke-opacity="1"/><path d="M21.23,109.51147l3.20111,2.56537a4.21851,4.21851,0,0,0,5.32593-.04761l3.11377-2.58691a5.72825,5.72825,0,0,0-.101-8.99231,6.746,6.746,0,0,0-4.212-1.45,6.916,6.916,0,0,0-1.59558.187,6.98386,6.98386,0,0,0-1.56311-.17529,6.68047,6.68047,0,0,0-4.27008,1.50745,5.7283,5.7283,0,0,0,.10089,8.99231Zm2.45532-5.91559a2.6894,2.6894,0,0,1,1.71387-.58417,2.78564,2.78564,0,0,1,1.576.47113,2.841,2.841,0,0,1,3.29327.08856,1.73269,1.73269,0,0,1,.04614,2.79425l-3.11609,2.58887A.20881.20881,0,0,1,27.06635,109h-.00092a.21289.21289,0,0,1-.13281-.04449l-3.20117-2.56543A1.73263,1.73263,0,0,1,23.68536,103.59589Z" fill="#ffffff" fill-opacity="1" data-original-color="#000000ff" stroke="none" stroke-opacity="1"/><circle cx="99" cy="51" r="2" fill="#ffffff" fill-opacity="1" data-original-color="#000000ff" stroke="none" stroke-opacity="1"/><circle cx="99" cy="59" r="2" fill="#ffffff" fill-opacity="1" data-original-color="#000000ff" stroke="none" stroke-opacity="1"/><circle cx="99" cy="67" r="2" fill="#ffffff" fill-opacity="1" data-original-color="#000000ff" stroke="none" stroke-opacity="1"/><circle cx="99" cy="75" r="2" fill="#ffffff" fill-opacity="1" data-original-color="#000000ff" stroke="none" stroke-opacity="1"/><circle cx="99" cy="83" r="2" fill="#ffffff" fill-opacity="1" data-original-color="#000000ff" stroke="none" stroke-opacity="1"/></g></svg>